<svg width="356" height="656" viewBox="0 0 356 656" fill="none" xmlns="http://www.w3.org/2000/svg">
<path d="M280.179 0.576771C288.362 -0.384525 296.306 -0.144187 304.008 1.29778C326.153 4.1817 341.558 14.2754 350.223 31.579C354.074 39.2694 356 47.4405 356 56.0923C356 66.1861 354.074 75.0782 350.223 82.7686C347.816 87.0945 344.687 91.4204 340.836 95.7463C336.503 99.5915 332.17 102.716 327.838 105.119C308.582 114.251 292.695 113.05 280.179 101.514C268.625 90.9397 267.421 76.0395 276.568 56.8133C280.901 48.6422 286.437 42.1534 293.176 37.3468C295.102 36.8661 296.065 36.1452 296.065 35.1839L289.566 33.7419C285.233 33.7419 281.863 34.4629 279.456 35.9049C276.568 36.8661 273.92 39.0291 271.513 42.3937C268.625 45.2776 266.699 48.8825 265.736 53.2084C262.366 67.1473 256.108 98.8705 246.961 148.378C240.703 179.62 237.574 195.482 237.574 195.963C237.574 196.924 251.294 197.405 278.734 197.405C308.1 197.405 323.987 199.087 326.394 202.451L327.116 204.614L324.227 219.034C321.82 228.166 319.895 233.454 318.45 234.896L316.284 237.059L272.957 237.78H230.353L215.189 315.645C197.377 411.776 186.064 469.214 181.249 487.96C165.844 554.771 145.144 601.394 119.148 627.83C110.964 636.482 102.058 643.452 92.43 648.739C83.2833 653.065 74.8587 655.468 67.1562 655.948C53.6768 656.429 40.9195 653.545 28.8844 647.297C25.5145 645.855 20.9412 642.73 15.1643 637.924C5.05477 627.35 0 614.612 0 599.712C0 589.618 1.92563 580.726 5.77688 573.036C8.18391 568.71 11.3131 564.384 15.1643 560.058C19.497 556.213 23.8296 553.089 28.1623 550.685C47.4185 541.553 63.3049 542.754 75.8215 554.29C87.3753 564.865 88.5788 579.765 79.4321 598.991C74.618 607.643 68.8411 614.132 62.1014 618.457C60.6572 619.419 59.6944 620.14 59.213 620.62C59.213 621.582 62.3421 622.062 68.6004 622.062L72.9331 621.341H73.6552C80.3949 617.977 86.1718 610.767 90.9858 599.712C94.8371 590.099 105.428 541.313 122.759 453.353L163.197 238.501C163.197 238.02 151.162 237.78 127.091 237.78H90.9858L88.0974 235.617C86.1717 233.213 86.4124 226.724 88.8195 216.15C91.2265 205.576 93.3929 199.808 95.3185 198.847C96.7627 197.885 109.761 197.405 134.312 197.405C158.864 197.405 171.14 197.164 171.14 196.684L184.86 123.144C194.007 82.288 206.523 52.9681 222.41 35.1839C238.296 15.9577 257.552 4.42201 280.179 0.576771Z" fill="black"/>
</svg>
